<?xml version="1.0" encoding="UTF-8"?>
<!DOCTYPE svg PUBLIC "-//W3C//DTD SVG 1.1//EN" "http://www.w3.org/Graphics/SVG/1.1/DTD/svg11.dtd">
<!-- Creator: CorelDRAW -->
<svg xmlns="http://www.w3.org/2000/svg" xml:space="preserve" width="160px" height="48px" style="shape-rendering:geometricPrecision; text-rendering:geometricPrecision; image-rendering:optimizeQuality; fill-rule:evenodd; clip-rule:evenodd"
viewBox="0 0 120.312 36.153"
 xmlns:xlink="http://www.w3.org/1999/xlink">
 <defs>
  <style type="text/css">
   <![CDATA[
    .fil1 {fill:#022BAA;fill-rule:nonzero}
    .fil2 {fill:#2B2A29;fill-rule:nonzero}
    .fil3 {fill:#666666;fill-rule:nonzero}
    .fil0 {fill:#FC4D01;fill-rule:nonzero}
   ]]>
  </style>
 </defs>
 <g id="Layer_x0020_1">
  <metadata id="CorelCorpID_0Corel-Layer"/>
  <g id="_284589480">
   <path id="_280222960" class="fil0" d="M103.924 0.702777c0.136107,0.0693881 0.322032,0.161906 0.507956,0.254423 0.208164,0.104082 0.417218,0.208164 0.654739,0.331817l0.162795 0.0854007 -0.0133439 0.181476c-0.116536,1.5123 -0.232183,3.02461 -0.34783,4.53691 -0.106751,1.40555 -0.212612,2.812 -0.318473,4.21844 0.419887,-0.0364732 0.838884,-0.111199 1.25788,-0.186814 0.420776,-0.0756152 0.841553,-0.15123 1.27211,-0.190372l0 -0.000889591c1.73826,-0.200158 3.49965,-0.204606 5.2388,-0.00800632 1.71424,0.193041 3.40713,0.580903 5.03508,1.16714l0.184145 0.0658297 0 0.19571 0 0.315805c0,0.315805 0,0.632499 0.000889591,0.948304l0.000889591 0.142335 -0.113868 0.0836215c-0.0791736,0.0578234 -0.162795,0.117426 -0.249975,0.179697 -0.0791736,0.0569338 -0.162795,0.115647 -0.251754,0.177029l-0.116536 0.0800632 -0.131659 -0.0453691c-2.03094,-0.698329 -4.17218,-1.08797 -6.31698,-1.1449 -2.03894,-0.054265 -4.08411,0.190372 -6.04566,0.755262 -0.185035,2.64742 -0.366511,5.20588 -0.547988,7.76613 -0.145003,2.04339 -0.290007,4.0939 -0.421666,5.96737 -0.00177918,0.298902 -0.188593,0.437679 -0.37007,0.572896 -0.0435899,0.0320253 -0.0871799,0.0649401 -0.113868,0.0925174l-0.0942966 0.0987446 -0.135218 -0.015123c-0.269546,-0.0284669 -0.491944,-0.0498171 -0.714341,-0.0711673 -0.233073,-0.0222398 -0.465256,-0.0444795 -0.661855,-0.0658297l-0.267767 -0.0275773 0.0186814 -0.267767c0.128101,-1.84323 0.249975,-3.57793 0.371849,-5.30908 0.185035,-2.61895 0.37007,-5.23791 0.546209,-7.81861 -0.944745,0.460808 -1.84946,1.01324 -2.67589,1.66087 -0.874468,0.684985 -1.66176,1.4785 -2.3156,2.38143 -0.507956,0.699218 -0.899376,1.47583 -1.16625,2.29425 -0.269546,0.828209 -0.41277,1.69734 -0.420776,2.56647 0.00355836,0.718789 0.0569338,1.44025 0.172581,2.15103 0.106751,0.665414 0.267767,1.32104 0.491054,1.95799l0.000889591 0.00177918c0.441237,1.29258 1.14579,2.49441 2.04962,3.51655 0.89048,1.00702 1.97578,1.84145 3.19452,2.41702l0 0.000889591c1.02125,0.47771 2.11278,0.823761 3.22832,1.00257 1.05239,0.167243 2.12701,0.185924 3.18473,0.0231294l0.00355836 0c1.30058,-0.185035 2.5469,-0.611149 3.71137,-1.20984 1.28279,-0.660076 2.46595,-1.52832 3.51477,-2.5122l0.000889591 -0.000889591c0.7179,-0.670751 1.36552,-1.42157 1.90995,-2.23999 0.514183,-0.773944 0.936739,-1.60749 1.23831,-2.48819l0.0631609 -0.186814 0.198379 -0.00177918c0.255313,-0.00355836 0.512404,-0.00266877 0.769496,-0.00266877 0.185924,0 0.372738,0 0.559553,-0.000889591l0.143224 -0.000889591 0.0836215 0.116536c0.0569338,0.078284 0.116536,0.161906 0.177029,0.249085 0.0809528,0.116536 0.138776,0.199268 0.17436,0.251754l0.078284 0.116536 -0.0471483 0.132549c-0.447464,1.26233 -1.09331,2.43837 -1.88059,3.5121 -0.838884,1.14312 -1.84056,2.16971 -2.9401,3.06019l0.000889591 0c-0.640505,0.524858 -1.31748,1.0168 -2.03094,1.45893 -0.709004,0.439458 -1.45181,0.827319 -2.22931,1.1449l0 0.000889591c-0.815755,0.335376 -1.66176,0.595136 -2.52288,0.767717 -0.828209,0.165464 -1.6751,0.249975 -2.52733,0.241969 -0.677868,0.0133439 -1.34862,-0.0489275 -2.00959,-0.160126 -0.653849,-0.111199 -1.30503,-0.272215 -1.94731,-0.45725l-0.00177918 0c-1.23653,-0.364732 -2.41791,-0.919837 -3.48631,-1.63952 -1.04794,-0.705445 -1.98824,-1.57013 -2.76574,-2.57003 -0.945635,-1.16536 -1.6582,-2.49886 -2.1368,-3.91331 -0.495502,-1.46605 -0.73925,-3.02016 -0.732133,-4.56538 -0.019571,-0.962537 0.0996342,-1.92418 0.346051,-2.85203 0.248196,-0.93496 0.626272,-1.83523 1.11999,-2.6661 0.58713,-0.990114 1.31837,-1.87882 2.14391,-2.67233 0.640505,-0.614707 1.33705,-1.17159 2.0683,-1.67243 -0.34783,0.0266877 -0.699218,0.0569338 -1.04972,0.0862903 -0.516852,0.0435899 -1.03281,0.0880695 -1.57813,0.126322 -1.86102,2.07808 -3.72205,4.15617 -5.58307,6.23425 -1.88593,2.10655 -3.77097,4.2131 -5.65602,6.31965l-0.0818423 0.0916278 -0.121874 0.000889591c-0.0942966,0.00177918 -0.190372,0.00266877 -0.286448,0.00266877 -0.0960758,0.000889591 -0.191262,0.000889591 -0.285559,0l-0.127211 0 -0.0827319 -0.0951862c-0.146782,-0.169912 -0.306019,-0.338044 -0.466146,-0.505288 -0.15123,-0.159237 -0.30335,-0.318473 -0.45636,-0.493723l-0.164574 -0.186814 0.168133 -0.183256c1.54789,-1.69556 3.094,-3.39379 4.6401,-5.09202 1.73025,-1.90017 3.45873,-3.79944 5.46209,-5.9905l-0.0773944 0.00355836 -0.0836215 0.00266877 -0.127211 0.00533754 -0.0871799 -0.0942966 -0.190372 -0.207275 -0.177029 -0.191262 -0.0845111 -0.0916278 0.0124543 -0.124543c0.0186814,-0.187704 0.0435899,-0.386972 0.0684985,-0.58624 0.0275773,-0.216171 0.0551546,-0.433231 0.073836,-0.644953l0.0204606 -0.225066 0.223287 -0.0284669c0.443016,-0.0551546 0.898487,-0.0827319 1.35307,-0.110309 0.233962,-0.0142335 0.468814,-0.0284669 0.721458,-0.0489275l1.12711 -1.29524c2.1706,-2.49085 4.3332,-4.97459 7.75189,-8.89413l0.142335 -0.162795 0.193041 0.0987446zm-6.31965 10.1636l1.00257 -0.0827319c1.20628,-0.0987446 2.41168,-0.198379 3.61797,-0.294455 0.0809528,-1.06751 0.157458,-2.10299 0.233073,-3.13848 0.0507067,-0.691212 0.101413,-1.38331 0.15212,-2.05406 -1.07552,1.19828 -1.77029,1.97044 -2.45616,2.73282 -0.946524,1.05328 -1.90194,2.11545 -2.54957,2.8369z"/>
   <path id="_280222840" class="fil0" d="M94.8766 0.15301c0.201047,-0.162795 0.426114,-0.156568 0.634278,-0.150341 0.0400316,0.000889591 0.078284,0.00177918 0.110309,0.00177918l0.0969654 -0.00177918 0.0773944 0.0596026c0.224177,0.172581 0.426114,0.357615 0.628051,0.54265 0.135218,0.123653 0.270436,0.248196 0.407433,0.363843l0.213502 0.180587 -0.181476 0.213502c-4.25135,4.98882 -8.50805,9.97231 -12.7656,14.9567 -2.77819,3.25234 -5.55549,6.5038 -8.33191,9.75792l-0.0106751 0.0115647c-0.0854007,0.0889591 -0.167243,0.190372 -0.249085,0.291786 -0.138776,0.171691 -0.276663,0.342492 -0.45725,0.492833l-0.125432 0.104082 -0.15212 -0.058713c-0.227735,-0.0880695 -0.43412,-0.181476 -0.641395,-0.275773 -0.145893,-0.0658297 -0.291786,-0.132549 -0.402985,-0.178808l-0.143224 -0.0613818 -0.0231294 -0.15301 -0.836215 -5.3669c-1.06039,-6.8027 -2.11989,-13.6001 -3.00504,-19.3344l-0.0204606 -0.135218 0.0951862 -0.0996342c0.0355836,-0.0373628 0.0693881,-0.0809528 0.103193,-0.123653 0.0942966,-0.120984 0.188593,-0.241969 0.346051,-0.330928l0.0578234 -0.0320253 0.0640505 -0.00355836c0.248196,-0.0133439 0.501729,-0.0115647 0.755262,-0.00889591 0.192152,0.00177918 0.384303,0.00355836 0.578234,-0.00266877l0.244637 -0.00711673 0.0382524 0.242858c0.445685,2.8716 0.89137,5.74409 1.33705,8.61658 0.688543,4.43728 1.37709,8.87545 2.0683,13.3127 3.61352,-4.22733 7.22348,-8.45912 10.8343,-12.69 2.87249,-3.3671 5.74498,-6.73331 8.61924,-10.0986l0.0160126 -0.0186814 0.0204606 -0.0169022z"/>
   <path id="_280222936" class="fil1" d="M51.1132 6.98151c0.741919,-0.185924 1.49451,-0.356726 2.26045,-0.483048 0.763269,-0.127211 1.53632,-0.208164 2.31916,-0.212612l0.0097855 0c0.295344,0.0097855 0.596915,0.0266877 0.89137,0.0765048 0.308688,0.0524858 0.612038,0.140555 0.897597,0.293565l0 0c0.240189,0.126322 0.444795,0.315805 0.592467,0.541761 0.145893,0.224177 0.236631,0.485717 0.250865,0.757042 0.0160126,0.294455 -0.0320253,0.579124 -0.118316,0.850449 -0.0818423,0.258871 -0.201047,0.509735 -0.330928,0.747256l-0.000889591 0.00355836c-0.364732,0.647622 -0.811307,1.24721 -1.32193,1.78719 -0.515963,0.544429 -1.09687,1.02659 -1.7267,1.43491l0 0c-0.789957,0.533754 -2.09588,1.18227 -3.45161,1.76495 -1.45359,0.624493 -2.97301,1.17604 -3.97825,1.42868 -0.60937,0.15301 -1.3673,0.313136 -2.13324,0.475931 -0.410101,0.0871799 -0.821982,0.17436 -1.16447,0.249085 -0.937629,3.24434 -1.87704,6.48778 -2.81733,9.72945l-0.0578234 0.201937 -0.209054 0 -1.03637 0 -0.137887 0 -0.0845111 -0.112088 -0.148562 -0.198379 -0.000889591 0.000889591 -0.153899 -0.203716 -0.0845111 -0.112088 0.0400316 -0.134328c0.448354,-1.50875 0.895818,-3.01749 1.34328,-4.52624 0.402985,-1.35752 0.80508,-2.71592 1.20717,-4.07344l-0.145893 0.0338044 -0.137887 0.0329149 -0.10764 -0.0925174c-0.034694,-0.0293565 -0.073836,-0.058713 -0.112978,-0.0871799 -0.119205,-0.0889591 -0.240189,-0.178808 -0.333597,-0.323811l-0.0400316 -0.0604922 -0.00533754 -0.0702777c-0.0142335,-0.19482 -0.0115647,-0.396757 -0.00800632,-0.597805 0.000889591,-0.0969654 0.00266877,-0.193931 0.00177918,-0.287338l-0.00177918 -0.1966 0.183256 -0.0676089c0.233962,-0.0854007 0.473262,-0.159237 0.7179,-0.219729 0.176139,-0.0435899 0.355836,-0.0800632 0.538202,-0.10853l0.479489 -1.76584c0.15123,-0.556884 0.301571,-1.11021 0.532865,-1.95443l-0.241079 0.114757c-0.140555,0.0667193 -0.281111,0.133439 -0.421666,0.199268l-0.139666 0.0658297 -0.128991 -0.0818423c-0.101413,-0.0640505 -0.0889591,-0.0578234 -0.289117,-0.185035l-0.172581 -0.111199 -0.128101 -0.0818423 -0.000889591 -0.15212 0 -0.097855c-0.000889591,-0.295344 -0.00177918,-0.589799 0.00355836,-0.883364l0.00355836 -0.171691 0.153899 -0.0747256c0.415439,-0.201047 0.846001,-0.378076 1.27478,-0.554215 0.209054,-0.0854007 0.418108,-0.170801 0.628051,-0.26065 0.111199,-0.446575 0.21706,-0.928733 0.322921,-1.41l0 -0.000889591c0.0711673,-0.322032 0.141445,-0.642284 0.225956,-1.00168l0.0507067 -0.215281 0.220618 0 1.02036 0 0.128991 0 0.0845111 0.101413c0.0284669,0.0338044 0.0773944,0.0925174 0.157458,0.185924 0.0373628,0.0444795 0.0889591,0.104082 0.158347,0.184145l0.0889591 0.102303 -0.0257981 0.133439c-0.0720568,0.374518 -0.157458,0.765938 -0.245527,1.16092 1.60571,-0.541761 3.21409,-1.0764 4.85539,-1.4874zm0.00533754 1.94553c-0.920726,0.258871 -1.83434,0.547988 -2.74172,0.856676 -0.867351,0.295344 -1.72581,0.60759 -2.57714,0.928733 -0.300682,1.00969 -0.568448,1.8975 -0.837105,2.78887 -0.122764,0.410101 -0.246417,0.820203 -0.37007,1.2303 1.28813,-0.293565 2.53,-0.644953 3.74429,-1.07107 1.36107,-0.47771 2.68745,-1.04883 4.00583,-1.73648 0.684985,-0.357615 1.3415,-0.754373 1.9313,-1.2054 0.581792,-0.443906 1.09598,-0.939408 1.50519,-1.49985l0 0 0.0364732 -0.0533754c0.17347,-0.246417 0.350499,-0.498171 0.431451,-0.768606l0.000889591 0c0.00889591,-0.0320253 0.015123,-0.0667193 0.0133439,-0.0942966 -0.225956,-0.135218 -0.537313,-0.142335 -0.829988,-0.149451l-0.078284 -0.00177918c-0.709893,0.0240189 -1.4189,0.121874 -2.12345,0.26154 -0.7179,0.142335 -1.4189,0.323811 -2.111,0.513294l0 0.000889591z"/>
   <path id="_280223680" class="fil1" d="M0.229514 9.53552c4.17752,-0.773054 8.35593,-1.54166 12.5334,-2.31027l3.376 -0.621824c0.300682,-0.0862903 0.469704,0.0729464 0.636057,0.229514 0.0373628,0.0355836 0.0747256,0.0711673 0.101413,0.0871799l0.128101 0.0809528 0.00177918 0.153899c0.00177918,0.257981 0.00266877,0.427004 0.00266877,0.488385 0,0.0613818 -0.000889591,0.230404 -0.00266877,0.488385l-0.00177918 0.230404 -0.225956 0.0418108c-1.15647,0.213502 -2.31294,0.427893 -3.4694,0.642284 -1.684,0.312246 -3.3671,0.624493 -5.05199,0.93407 -1.00702,3.69358 -2.01581,7.38805 -3.02372,11.0825l-1.48651 5.44429 -0.0569338 0.209943 -0.216171 -0.00533754c-0.132549,-0.00266877 -0.265098,-0.000889591 -0.397647,0.000889591 -0.201047,0.00177918 -0.402095,0.00444795 -0.598695,-0.00622713l-0.0791736 -0.00444795 -0.0640505 -0.0444795c-0.135218,-0.093407 -0.215281,-0.209943 -0.295344,-0.32559 -0.0293565,-0.0418108 -0.0578234,-0.0845111 -0.0880695,-0.120095l-0.0942966 -0.111199 0.0382524 -0.141445c0.730354,-2.66966 1.45982,-5.33932 2.18839,-8.0081 0.552436,-2.02649 1.2134,-4.45151 2.06474,-7.58465 -0.819313,0.148562 -1.65464,0.302461 -2.50153,0.459918 -0.916278,0.171691 -1.89928,0.357615 -2.9312,0.555105l-0.127211 0.0249085 -0.100524 -0.0827319c-0.0462587,-0.0373628 -0.113868,-0.0942966 -0.19482,-0.161016 -0.0515963,-0.0435899 -0.117426,-0.097855 -0.192152,-0.161016l-0.100524 -0.0845111 0.000889591 -0.12988c0.000889591,-0.054265 0.000889591,-0.235742 0.000889591,-0.488385 0,-0.460808 0,-0.505288 0,-0.496392l0 -0.225066 0.227735 -0.0418108z"/>
   <path id="_281787680" class="fil1" d="M28.8138 6.67193c0.692991,-0.0987446 1.40644,-0.12988 2.11189,-0.0640505 0.639616,0.0604922 1.26856,0.200158 1.86636,0.442127l0 0c0.781061,0.310467 1.50163,0.771275 2.11367,1.34595 0.610259,0.571117 1.11377,1.25432 1.46694,2.01136l-0.000889591 0.000889591c0.30335,0.647622 0.47771,1.33794 0.551546,2.04072 0.0818423,0.777502 0.0400316,1.57102 -0.0862903,2.33695l0 0.000889591c-0.165464,0.986556 -0.473262,1.93397 -0.873578,2.84046 -0.398537,0.901155 -0.89048,1.76406 -1.4269,2.58693l-0.000889591 0.00266877c-0.523969,0.787288 -1.1111,1.53454 -1.75605,2.22754 -0.632499,0.679647 -1.32015,1.30681 -2.05851,1.87081l0 0c-0.851338,0.654739 -1.78541,1.22852 -2.77908,1.65286 -0.894928,0.380745 -1.84056,0.640505 -2.82089,0.728575l0 0c-0.928733,0.0942966 -1.87259,0.0133439 -2.77196,-0.228625 -0.894039,-0.240189 -1.74627,-0.641395 -2.49797,-1.19027l-0.000889591 0.00177918c-0.571117,-0.409212 -1.05772,-0.926953 -1.44381,-1.51408 -0.392309,-0.596915 -0.677868,-1.26322 -0.838884,-1.95799 -0.1966,-0.846001 -0.249975,-1.71246 -0.193041,-2.5727 0.0622713,-0.951862 0.258871,-1.89661 0.541761,-2.79865 0.374518,-1.19294 0.93496,-2.31471 1.63062,-3.34753 0.741029,-1.10131 1.63685,-2.10121 2.62696,-2.97924l0 0c0.930512,-0.832657 1.95443,-1.59593 3.0593,-2.19818 1.11466,-0.60759 2.31116,-1.0515 3.57971,-1.2392l0.000889591 0zm0.246417 1.81743c-0.69655,0.101413 -1.37175,0.30513 -2.01848,0.580903 -0.650291,0.277552 -1.27211,0.628051 -1.85835,1.02125l0 0.000889591c-1.04972,0.720568 -2.02738,1.56123 -2.87516,2.51042 -0.793515,0.887811 -1.47494,1.87081 -1.9998,2.9401l0 0c-0.427893,0.904714 -0.765048,1.87348 -0.937629,2.86448 -0.15212,0.87002 -0.177918,1.75516 -0.0275773,2.62785l0 0.00266877c0.0942966,0.571117 0.306019,1.12177 0.616486,1.60749 0.302461,0.473262 0.699218,0.885143 1.17337,1.1965l0.00444795 0.00355836c0.602253,0.41277 1.2819,0.709004 1.99179,0.873578 0.704556,0.162795 1.43847,0.197489 2.15548,0.0880695l0.00355836 0c0.926953,-0.128991 1.80498,-0.450133 2.62607,-0.89137 0.829988,-0.445685 1.60215,-1.01235 2.30849,-1.62706l0 0c0.835326,-0.732133 1.58703,-1.55589 2.24889,-2.44726 0.678758,-0.915389 1.26322,-1.90461 1.74627,-2.94099l0.000889591 0c0.323811,-0.713452 0.588019,-1.47049 0.734802,-2.23999 0.145893,-0.765938 0.177029,-1.547 0.0373628,-2.3156l-0.00177918 -0.00177918c-0.128101,-0.735691 -0.45547,-1.41979 -0.916278,-2.00514 -0.484827,-0.613818 -1.11466,-1.11733 -1.81565,-1.45359l-0.000889591 0c-0.463477,-0.225066 -0.963427,-0.361174 -1.47494,-0.425224 -0.570228,-0.0720568 -1.15469,-0.0533754 -1.72136,0.0302461z"/>
   <path id="_284589504" class="fil1" d="M64.683 6.58119c0.250865,-0.000889591 0.501729,-0.000889591 0.752594,-0.000889591l0.250865 0 0.136107 0.000889591 0.0836215 0.10764c0.0800632,0.103193 0.160126,0.206385 0.240189,0.310467l0.0729464 0.0951862 0.0854007 0.111199 -0.0355836 0.132549 -0.206385 0.757931c-1.71958,6.3241 -3.43916,12.6491 -5.00662,18.4305l-0.0560442 0.206385 -0.212612 0c-0.56578,0 -0.904714,0 -1.0168,0l-0.137887 0.000889591 -0.0836215 -0.10942c-0.0916278,-0.120095 -0.149451,-0.19482 -0.200158,-0.26154l-0.100524 -0.13077 -0.0845111 -0.110309 0.0355836 -0.132549c0.942966,-3.47741 1.8886,-6.95393 2.83335,-10.4313 0.794404,-2.92319 1.58881,-5.84728 2.38232,-8.77136l0.0551546 -0.203716 0.212612 -0.00177918z"/>
   <path id="_279004840" class="fil2" d="M3.50499 30.48c0.0498171,0 0.0854007,0.0329149 0.104972,0.097855l1.22052 4.05209c0.00444795,0.0355836 0.0249085,0.0533754 0.0604922,0.0533754l0.0373628 0c0.0302461,0 0.0498171,-0.0177918 0.0604922,-0.0533754l1.21963 -3.71315c0.0551546,-0.170801 0.128101,-0.286448 0.218839,-0.346051 0.0898487,-0.0604922 0.202827,-0.0907382 0.338934,-0.0907382l0.745477 0c0.165464,0 0.292675,0.0329149 0.380745,0.097855 0.0871799,0.0658297 0.159237,0.178808 0.214391,0.338934l1.24987 3.71315c0.0106751,0.0355836 0.0302461,0.0533754 0.0604922,0.0533754l0.0453691 0c0.0302461,0 0.0498171,-0.0177918 0.0604922,-0.0533754l1.19027 -4.05209c0.0097855,-0.0400316 0.0257981,-0.0667193 0.0489275,-0.0791736 0.0222398,-0.0124543 0.0462587,-0.0186814 0.0711673,-0.0186814l1.0168 0c0.0400316,0 0.0640505,0.0177918 0.0711673,0.0524858 0.00800632,0.0355836 0.00444795,0.0756152 -0.0106751,0.120984l-1.44647 4.52713c-0.0702777,0.225956 -0.147672,0.377186 -0.233073,0.45547 -0.0854007,0.0773944 -0.201047,0.116536 -0.34694,0.116536l-0.881584 0c-0.145003,0 -0.25976,-0.0400316 -0.342492,-0.120095 -0.0827319,-0.0809528 -0.161906,-0.231294 -0.236631,-0.451912l-1.18316 -3.57793c-0.00444795,-0.0355836 -0.0249085,-0.0533754 -0.0604922,-0.0533754l-0.0293565 0c-0.0355836,0 -0.0551546,0.0177918 -0.0604922,0.0533754l-1.19739 3.57793c-0.0756152,0.220618 -0.154789,0.370959 -0.237521,0.451912 -0.0827319,0.0800632 -0.197489,0.120095 -0.342492,0.120095l-0.859345 0c-0.0854007,0 -0.159237,-0.00711673 -0.221508,-0.0222398 -0.0631609,-0.015123 -0.119205,-0.0444795 -0.169912,-0.0871799 -0.0498171,-0.0427004 -0.0942966,-0.101413 -0.131659,-0.177029 -0.0373628,-0.0747256 -0.073836,-0.170801 -0.10942,-0.285559l-1.38598 -4.52713c-0.015123,-0.0507067 -0.0186814,-0.0916278 -0.0106751,-0.124543 0.00711673,-0.0329149 0.0311357,-0.0489275 0.0711673,-0.0489275l1.00969 0zm15.9753 0c0.381634,0 0.707225,0.0364732 0.975881,0.10942 0.268656,0.0729464 0.486606,0.188593 0.654739,0.346051 0.168133,0.158347 0.290007,0.362953 0.365622,0.613818 0.0756152,0.251754 0.112978,0.557773 0.112978,0.918947l0 1.29613c0,0.361174 -0.0373628,0.668972 -0.112978,0.922506 -0.0756152,0.253533 -0.197489,0.459029 -0.365622,0.617376 -0.168133,0.158347 -0.386082,0.272215 -0.654739,0.342492 -0.268656,0.0702777 -0.594247,0.105861 -0.975881,0.105861l-2.32717 0c-0.381634,0 -0.705445,-0.0355836 -0.971433,-0.105861 -0.266877,-0.0702777 -0.483937,-0.184145 -0.65207,-0.342492 -0.168133,-0.158347 -0.290896,-0.363843 -0.36918,-0.617376 -0.0773944,-0.253533 -0.116536,-0.561332 -0.116536,-0.922506l0 -1.29613c0,-0.361174 0.039142,-0.667193 0.116536,-0.918947 0.078284,-0.250865 0.201047,-0.45547 0.36918,-0.613818 0.168133,-0.157458 0.385193,-0.273104 0.65207,-0.346051 0.265988,-0.0729464 0.589799,-0.10942 0.971433,-0.10942l2.32717 0zm-3.28348 3.20164c0,0.19571 0.0160126,0.360284 0.0489275,0.492833 0.0320253,0.133439 0.0862903,0.23841 0.161906,0.316694 0.0747256,0.0773944 0.177029,0.132549 0.30513,0.165464 0.127211,0.0329149 0.290007,0.0489275 0.485717,0.0489275l2.23643 0c0.19571,0 0.358505,-0.0160126 0.485717,-0.0489275 0.128101,-0.0329149 0.230404,-0.0880695 0.30513,-0.165464 0.0756152,-0.078284 0.12988,-0.183256 0.161906,-0.316694 0.0329149,-0.132549 0.0489275,-0.297123 0.0489275,-0.492833l0 -1.12978c0,-0.1966 -0.0160126,-0.360284 -0.0489275,-0.493723 -0.0320253,-0.133439 -0.0862903,-0.23841 -0.161906,-0.316694 -0.0747256,-0.0773944 -0.177029,-0.132549 -0.30513,-0.165464 -0.127211,-0.0329149 -0.290007,-0.0489275 -0.485717,-0.0489275l-2.23643 0c-0.19571,0 -0.358505,0.0160126 -0.485717,0.0489275 -0.128101,0.0329149 -0.230404,0.0880695 -0.30513,0.165464 -0.0756152,0.078284 -0.12988,0.183256 -0.161906,0.316694 -0.0329149,0.133439 -0.0489275,0.297123 -0.0489275,0.493723l0 1.12978zm9.82108 -3.20164c0.110309,0 0.165464,0.0551546 0.165464,0.165464l0 3.00593c0,0.200158 0.0169022,0.367401 0.0489275,0.50084 0.0329149,0.132549 0.0871799,0.23841 0.161906,0.315805 0.0756152,0.078284 0.177029,0.133439 0.30513,0.166353 0.128101,0.0320253 0.290007,0.0489275 0.485717,0.0489275l2.08698 0c0.19571,0 0.357615,-0.0169022 0.485717,-0.0489275 0.128101,-0.0329149 0.229514,-0.0880695 0.30513,-0.166353 0.0756152,-0.0773944 0.128101,-0.183256 0.158347,-0.315805 0.0302461,-0.133439 0.0444795,-0.300682 0.0444795,-0.50084l0 -3.00593c0,-0.110309 0.0560442,-0.165464 0.166353,-0.165464l0.821092 0c0.110309,0 0.165464,0.0551546 0.165464,0.165464l0 3.1189c0,0.361174 -0.0373628,0.668972 -0.112978,0.922506 -0.0756152,0.253533 -0.197489,0.459029 -0.365622,0.617376 -0.168133,0.158347 -0.386082,0.272215 -0.654739,0.342492 -0.268656,0.0702777 -0.594247,0.105861 -0.975881,0.105861l-2.16882 0c-0.381634,0 -0.705445,-0.0355836 -0.972323,-0.105861 -0.265988,-0.0702777 -0.483048,-0.184145 -0.65118,-0.342492 -0.168133,-0.158347 -0.290896,-0.363843 -0.36918,-0.617376 -0.0773944,-0.253533 -0.116536,-0.561332 -0.116536,-0.922506l0 -3.1189c0,-0.110309 0.0578234,-0.165464 0.17347,-0.165464l0.813086 0zm10.2508 0c0.120095,0 0.220618,0.00533754 0.301571,0.015123 0.0800632,0.0097855 0.150341,0.0311357 0.210833,0.0640505 0.0596026,0.0329149 0.117426,0.0773944 0.172581,0.135218 0.0560442,0.0578234 0.118316,0.134328 0.188593,0.230404l2.80132 3.67579c0.019571,0.034694 0.0524858,0.0524858 0.097855,0.0524858l0.0676089 0c0.0400316,0 0.0604922,-0.0249085 0.0604922,-0.0756152l0 -3.93199c0,-0.110309 0.0551546,-0.165464 0.165464,-0.165464l0.790846 0c0.110309,0 0.165464,0.0551546 0.165464,0.165464l0 4.32341c0,0.306909 -0.0551546,0.514183 -0.165464,0.621824 -0.110309,0.10764 -0.281111,0.161906 -0.512404,0.161906l-0.647622 0c-0.114757,0 -0.210833,-0.00533754 -0.289117,-0.015123 -0.0773944,-0.0097855 -0.146782,-0.0302461 -0.207275,-0.0604922 -0.0596026,-0.0302461 -0.119205,-0.073836 -0.177029,-0.131659 -0.0569338,-0.0578234 -0.123653,-0.136997 -0.199268,-0.237521l-2.80933 -3.6749c-0.0302461,-0.0355836 -0.0631609,-0.0533754 -0.097855,-0.0533754l-0.0676089 0c-0.0409212,0 -0.0604922,0.0257981 -0.0604922,0.0756152l0 3.93199c0,0.110309 -0.0551546,0.165464 -0.165464,0.165464l-0.790846 0c-0.115647,0 -0.17347,-0.0551546 -0.17347,-0.165464l0 -4.32341c0,-0.306909 0.0551546,-0.513294 0.165464,-0.621824 0.110309,-0.10764 0.281111,-0.161906 0.512404,-0.161906l0.662745 0zm12.2986 0c0.407433,0 0.756152,0.0418108 1.04705,0.124543 0.291786,0.0827319 0.530196,0.210833 0.71612,0.384303 0.185924,0.172581 0.322032,0.394089 0.410101,0.662745 0.0880695,0.268656 0.131659,0.58624 0.131659,0.952752l0 1.02392c0,0.366511 -0.0435899,0.684095 -0.131659,0.952752 -0.0880695,0.268656 -0.224177,0.490164 -0.410101,0.662745 -0.185924,0.17347 -0.424335,0.301571 -0.71612,0.384303 -0.290896,0.0827319 -0.639616,0.124543 -1.04705,0.124543l-3.52456 0c-0.15123,0 -0.225956,-0.0756152 -0.225956,-0.225956l0 -4.82069c0,-0.150341 0.0747256,-0.225956 0.225956,-0.225956l3.52456 0zm-2.59849 4.1277c0,0.0649401 0.0329149,0.097855 0.097855,0.097855l2.47128 0c0.220618,0 0.406543,-0.019571 0.556884,-0.0604922 0.150341,-0.0400316 0.272215,-0.104972 0.365622,-0.19571 0.0925174,-0.0898487 0.159237,-0.210833 0.199268,-0.361174 0.0400316,-0.15123 0.0604922,-0.336265 0.0604922,-0.557773l0 -0.828209c0,-0.221508 -0.0204606,-0.406543 -0.0604922,-0.557773 -0.0400316,-0.150341 -0.106751,-0.271325 -0.199268,-0.361174 -0.093407,-0.0907382 -0.215281,-0.155678 -0.365622,-0.19571 -0.150341,-0.0400316 -0.336265,-0.0604922 -0.556884,-0.0604922l-2.47128 0c-0.0649401,0 -0.097855,0.0355836 -0.097855,0.105861l0 2.97479zm16.3364 -4.1277c0.111199,0 0.166353,0.0551546 0.166353,0.165464l0 0.73836c0,0.115647 -0.0551546,0.17347 -0.166353,0.17347l-3.35109 0c-0.19571,0 -0.358505,0.0160126 -0.485717,0.0489275 -0.128101,0.0329149 -0.230404,0.0880695 -0.30513,0.165464 -0.0756152,0.078284 -0.12988,0.182366 -0.161906,0.313136 -0.0329149,0.12988 -0.0489275,0.296234 -0.0489275,0.496392l0 1.07018c0,0.200158 0.0160126,0.367401 0.0489275,0.50084 0.0320253,0.132549 0.0862903,0.23841 0.161906,0.315805 0.0747256,0.078284 0.177029,0.133439 0.30513,0.166353 0.127211,0.0320253 0.290007,0.0489275 0.485717,0.0489275l3.35109 0c0.111199,0 0.166353,0.0551546 0.166353,0.165464l0 0.73836c0,0.110309 -0.0551546,0.165464 -0.166353,0.165464l-3.39646 0c-0.381634,0 -0.705445,-0.0355836 -0.971433,-0.105861 -0.266877,-0.0702777 -0.483937,-0.184145 -0.65207,-0.342492 -0.168133,-0.158347 -0.290896,-0.363843 -0.36918,-0.617376 -0.0773944,-0.253533 -0.116536,-0.561332 -0.116536,-0.922506l0 -1.29613c0,-0.361174 0.039142,-0.667193 0.116536,-0.918947 0.078284,-0.250865 0.201047,-0.45547 0.36918,-0.613818 0.168133,-0.157458 0.385193,-0.273104 0.65207,-0.346051 0.265988,-0.0729464 0.589799,-0.10942 0.971433,-0.10942l3.39646 0zm6.83917 0c0.191262,0 0.351388,0.039142 0.482158,0.116536 0.13077,0.078284 0.258871,0.230404 0.384303,0.45636l2.49263 4.52624c0.0257981,0.0507067 0.0320253,0.0916278 0.019571,0.124543 -0.0124543,0.0329149 -0.0489275,0.0489275 -0.10942,0.0489275l-0.95631 0c-0.0854007,0 -0.143224,-0.0329149 -0.17347,-0.097855l-0.534644 -0.971433 -3.54057 0 -0.519521 0.971433c-0.0355836,0.0649401 -0.0925174,0.097855 -0.17347,0.097855l-0.979439 0c-0.0649401,0 -0.104082,-0.0160126 -0.116536,-0.0489275 -0.0124543,-0.0329149 -0.00622713,-0.073836 0.0186814,-0.124543l2.47128 -4.52624c0.125432,-0.225956 0.248196,-0.378076 0.368291,-0.45636 0.120984,-0.0773944 0.26154,-0.116536 0.422556,-0.116536l0.443906 0zm-1.46071 3.32974l2.59049 0 -1.19739 -2.20707c-0.0204606,-0.0355836 -0.0480379,-0.0533754 -0.0827319,-0.0533754l-0.0453691 0c-0.034694,0 -0.0631609,0.0177918 -0.0827319,0.0533754l-1.18227 2.20707zm12.2523 -3.32974c0.577344,0 0.991004,0.13077 1.24276,0.39142 0.250865,0.26154 0.376297,0.648512 0.376297,1.16003l0 0.429672c0,0.431451 -0.0880695,0.773054 -0.263319,1.02392 -0.176139,0.251754 -0.462587,0.41188 -0.859345,0.482158l1.28813 1.59682c0.0257981,0.0257981 0.0329149,0.0631609 0.0231294,0.112978 -0.0106751,0.0507067 -0.0507067,0.0756152 -0.120984,0.0756152l-0.971433 0c-0.0649401,0 -0.110309,-0.00711673 -0.135218,-0.0222398 -0.0257981,-0.015123 -0.0507067,-0.0409212 -0.0756152,-0.0756152l-1.18938 -1.56657 -2.43214 0 0 1.49896c0,0.110309 -0.0551546,0.165464 -0.165464,0.165464l-0.813086 0c-0.115647,0 -0.17347,-0.0551546 -0.17347,-0.165464l0 -4.88118c0,-0.150341 0.0747256,-0.225956 0.225956,-0.225956l4.04319 0zm-3.11713 2.68923l2.88316 0c0.256202,0 0.436789,-0.0551546 0.54265,-0.165464 0.104972,-0.111199 0.158347,-0.279331 0.158347,-0.505288l0 -0.315805c0,-0.225956 -0.0533754,-0.394089 -0.158347,-0.505288 -0.105861,-0.110309 -0.286448,-0.165464 -0.54265,-0.165464l-2.78531 0c-0.0649401,0 -0.097855,0.0302461 -0.097855,0.0907382l0 1.56657zm13.5485 -2.68923c0.115647,0 0.17347,0.0551546 0.17347,0.165464l0 0.71612c0,0.110309 -0.0578234,0.165464 -0.17347,0.165464l-3.29149 0c-0.19571,0 -0.357615,0.0160126 -0.485717,0.0489275 -0.128101,0.0329149 -0.231294,0.0880695 -0.308688,0.165464 -0.078284,0.078284 -0.131659,0.183256 -0.161906,0.316694 -0.0302461,0.133439 -0.0453691,0.297123 -0.0453691,0.493723l0 0.0747256 4.2558 0c0.110309,0 0.165464,0.0551546 0.165464,0.165464l0 0.595136c0,0.111199 -0.0551546,0.166353 -0.165464,0.166353l-4.2558 0 0 0.128101c0,0.19571 0.015123,0.360284 0.0453691,0.492833 0.0302461,0.133439 0.0836215,0.23841 0.161906,0.316694 0.0773944,0.0773944 0.180587,0.132549 0.308688,0.165464 0.128101,0.0329149 0.290007,0.0489275 0.485717,0.0489275l3.29149 0c0.115647,0 0.17347,0.0551546 0.17347,0.165464l0 0.71612c0,0.110309 -0.0578234,0.165464 -0.17347,0.165464l-3.31373 0c-0.381634,0 -0.705445,-0.0355836 -0.971433,-0.105861 -0.266877,-0.0702777 -0.483937,-0.184145 -0.65207,-0.342492 -0.168133,-0.158347 -0.290896,-0.363843 -0.36918,-0.617376 -0.0773944,-0.253533 -0.116536,-0.561332 -0.116536,-0.922506l0 -1.29613c0,-0.361174 0.039142,-0.667193 0.116536,-0.918947 0.078284,-0.250865 0.201047,-0.45547 0.36918,-0.613818 0.168133,-0.157458 0.385193,-0.273104 0.65207,-0.346051 0.265988,-0.0729464 0.589799,-0.10942 0.971433,-0.10942l3.31373 0z"/>
   <path id="_279004384" class="fil3" d="M113.554 2.82445l0.628051 0c0.299792,0 0.504398,-0.0453691 0.614707,-0.134328 0.10853,-0.0889591 0.163685,-0.208164 0.163685,-0.355836 0,-0.0951862 -0.0266877,-0.179697 -0.0800632,-0.255313 -0.0524858,-0.073836 -0.124543,-0.13077 -0.21795,-0.167243 -0.0942966,-0.0382524 -0.266877,-0.0551546 -0.520411,-0.0551546l-0.588019 0 0 0.967875zm-0.517742 1.80498l0 -3.20697 1.1022 0c0.377186,0 0.649401,0.0284669 0.817534,0.0880695 0.169022,0.058713 0.302461,0.161906 0.403874,0.309578 0.0996342,0.148562 0.149451,0.30424 0.149451,0.470593 0,0.234852 -0.0836215,0.438568 -0.250865,0.612038 -0.167243,0.17436 -0.389641,0.271325 -0.665414,0.292675 0.112978,0.0471483 0.204606,0.104082 0.271325,0.169912 0.12988,0.127211 0.288227,0.338934 0.475041,0.636057l0.39053 0.628051 -0.631609 0 -0.284669 -0.506177c-0.223287,-0.396757 -0.403874,-0.645843 -0.540871,-0.745477 -0.0942966,-0.0747256 -0.233073,-0.111199 -0.414549,-0.111199l-0.30424 0 0 1.36285 -0.517742 0zm1.3077 -4.1366c-0.418997,0 -0.82643,0.10853 -1.2223,0.322921 -0.396757,0.214391 -0.707225,0.5213 -0.930512,0.918947 -0.224177,0.399426 -0.335376,0.814865 -0.335376,1.2481 0,0.428783 0.110309,0.839774 0.330038,1.23297 0.219729,0.394089 0.527527,0.700997 0.922506,0.921616 0.394978,0.219729 0.805969,0.330038 1.23564,0.330038 0.429672,0 0.842442,-0.110309 1.23742,-0.330038 0.394978,-0.220618 0.700997,-0.527527 0.918947,-0.921616 0.218839,-0.393199 0.328259,-0.80419 0.328259,-1.23297 0,-0.433231 -0.111199,-0.84867 -0.333597,-1.2481 -0.222398,-0.397647 -0.531975,-0.704556 -0.930512,-0.918947 -0.397647,-0.214391 -0.80508,-0.322921 -1.22052,-0.322921zm0 -0.492833c0.50084,0 0.988335,0.128101 1.46605,0.384303 0.475931,0.257092 0.84867,0.623603 1.11377,1.10309 0.265988,0.476821 0.399426,0.975881 0.399426,1.4954 0,0.513294 -0.13077,1.00702 -0.394089,1.47939 -0.26154,0.475041 -0.62983,0.843332 -1.10131,1.10576 -0.473262,0.262429 -0.966985,0.393199 -1.48384,0.393199 -0.515963,0 -1.01146,-0.13077 -1.48295,-0.393199 -0.473262,-0.262429 -0.841553,-0.63072 -1.10398,-1.10576 -0.264208,-0.472373 -0.394978,-0.966095 -0.394978,-1.47939 0,-0.519521 0.132549,-1.01858 0.400316,-1.4954 0.266877,-0.479489 0.638726,-0.846001 1.11644,-1.10309 0.475931,-0.256202 0.965206,-0.384303 1.46516,-0.384303z"/>
  </g>
 </g>
</svg>
